<?xml version="1.0" encoding="UTF-8"?>
<!-- Generator: Adobe Illustrator 16.0.0, SVG Export Plug-In . SVG Version: 6.00 Build 0)  -->
<!DOCTYPE svg PUBLIC "-//W3C//DTD SVG 1.1//EN" "http://www.w3.org/Graphics/SVG/1.1/DTD/svg11.dtd">
<svg version="1.1" id="Calque_1" xmlns="http://www.w3.org/2000/svg" xmlns:xlink="http://www.w3.org/1999/xlink" x="0px" y="0px" width="28.35px" height="28.35px" viewBox="0 0 28.35 28.35" enable-background="new 0 0 28.35 28.35" xml:space="preserve">
<g>
	<g>
		<path fill="#FFFFFF" d="M14.265,4.946c-4.289,0-7.769,3.478-7.769,7.767c0,1.789,0.604,3.436,1.617,4.748l0.924-3.929v4.93    l3.703-7.59l1.524,3.209l1.524-3.209l3.703,7.59c1.561-1.42,2.538-3.468,2.538-5.749C22.03,8.423,18.555,4.946,14.265,4.946z"/>
		<polygon fill="#FFFFFF" points="9.038,18.462 9.038,18.462 9.038,18.462   "/>
		<path fill="#FFFFFF" d="M8.114,17.461L8.114,17.461L4.07,18.462h4.968C8.703,18.156,8.394,17.821,8.114,17.461z"/>
	</g>
	<g>
		<path fill="#FFFFFF" d="M2.05,19.611H2.5L3.569,22.1l1.065-2.488h0.45v2.923H4.792v-2.599l-1.1,2.599H3.443l-1.1-2.599v2.599H2.05    V19.611z"/>
		<path fill="#FFFFFF" d="M5.844,21.557c0.016,0.412,0.416,0.748,0.815,0.748c0.32,0,0.645-0.179,0.775-0.475h0.304    c-0.149,0.435-0.594,0.755-1.052,0.755c-0.631,0-1.135-0.498-1.135-1.13c0-0.63,0.498-1.132,1.127-1.132    c0.341,0,0.653,0.154,0.871,0.419c0.203,0.249,0.245,0.504,0.253,0.814H5.844z M7.509,21.292    c-0.075-0.384-0.427-0.688-0.826-0.688c-0.408,0-0.768,0.289-0.839,0.688H7.509z"/>
		<path fill="#FFFFFF" d="M10.416,22.534h-0.277v-0.396H10.13c-0.208,0.305-0.49,0.446-0.866,0.446c-0.312,0-0.6-0.126-0.906-0.446    c-0.106-0.092-0.237-0.376-0.237-0.691c0-0.646,0.536-1.124,1.164-1.124c0.323,0,0.661,0.142,0.829,0.422h0.008v-1.134h0.293    V22.534z M9.265,20.604c-0.458,0-0.85,0.371-0.85,0.839c0,0.475,0.383,0.862,0.857,0.862c0.475,0,0.858-0.388,0.858-0.862    C10.13,20.963,9.736,20.604,9.265,20.604z"/>
		<path fill="#FFFFFF" d="M10.914,19.611h0.293v0.498h-0.293V19.611z M10.914,20.37h0.293v2.164h-0.293V20.37z"/>
		<path fill="#FFFFFF" d="M13.908,22.534h-0.28v-0.408H13.62c-0.16,0.305-0.49,0.459-0.831,0.459c-0.325,0-0.677-0.142-0.954-0.459    c-0.078-0.087-0.213-0.358-0.213-0.688c0-0.298,0.123-0.563,0.312-0.759c0.208-0.215,0.479-0.356,0.847-0.356    c0.341,0,0.685,0.149,0.839,0.459h0.008V20.37h0.28V22.534z M11.916,21.463c0,0.474,0.41,0.842,0.874,0.842    c0.45,0,0.839-0.388,0.839-0.84c0-0.478-0.365-0.861-0.847-0.861C12.307,20.604,11.916,20.983,11.916,21.463z"/>
		<path fill="#FFFFFF" d="M17.443,21.186c-0.053,0.802-0.756,1.399-1.545,1.399c-0.843,0-1.567-0.672-1.567-1.525    c0-0.389,0.178-0.78,0.45-1.049c0.306-0.302,0.699-0.448,1.117-0.448c0.304,0,0.604,0.084,0.857,0.25    c0.189,0.126,0.437,0.353,0.512,0.577h-0.333c-0.206-0.343-0.629-0.545-1.036-0.545c-0.312,0-0.629,0.106-0.871,0.328    c-0.24,0.222-0.403,0.557-0.403,0.89c0,0.712,0.589,1.242,1.285,1.242c0.521,0,1.036-0.344,1.183-0.854h-1.634v-0.265H17.443z"/>
		<path fill="#FFFFFF" d="M17.856,20.37h0.277v0.313h0.008c0.106-0.257,0.354-0.353,0.62-0.36v0.288    c-0.156,0.012-0.27,0.048-0.391,0.15c-0.203,0.17-0.222,0.317-0.222,0.563v1.21h-0.293V20.37z"/>
		<path fill="#FFFFFF" d="M21.251,22.534h-0.283v-0.408H20.96c-0.157,0.305-0.49,0.459-0.828,0.459    c-0.325,0-0.677-0.142-0.954-0.459c-0.08-0.087-0.214-0.358-0.214-0.688c0-0.298,0.123-0.563,0.313-0.759    c0.205-0.215,0.479-0.356,0.847-0.356c0.339,0,0.685,0.149,0.837,0.459h0.008V20.37h0.283V22.534z M19.255,21.463    c0,0.474,0.413,0.842,0.877,0.842c0.449,0,0.836-0.388,0.836-0.84c0-0.478-0.362-0.861-0.845-0.861    C19.646,20.604,19.255,20.983,19.255,21.463z"/>
		<path fill="#FFFFFF" d="M23.96,22.534h-0.277v-0.396h-0.008c-0.211,0.305-0.49,0.446-0.866,0.446    c-0.312,0-0.603-0.126-0.905-0.446c-0.107-0.092-0.237-0.376-0.237-0.691c0-0.646,0.532-1.124,1.161-1.124    c0.325,0,0.661,0.142,0.831,0.422h0.009v-1.134h0.293V22.534z M22.809,20.604c-0.458,0-0.85,0.371-0.85,0.839    c0,0.475,0.384,0.862,0.857,0.862s0.858-0.388,0.858-0.862C23.675,20.963,23.277,20.604,22.809,20.604z"/>
		<path fill="#FFFFFF" d="M24.668,21.557c0.016,0.412,0.413,0.748,0.813,0.748c0.322,0,0.645-0.179,0.778-0.475h0.304    c-0.152,0.435-0.594,0.755-1.053,0.755c-0.634,0-1.135-0.498-1.135-1.13c0-0.63,0.498-1.132,1.127-1.132    c0.341,0,0.652,0.154,0.869,0.419c0.202,0.249,0.247,0.504,0.253,0.814H24.668z M26.333,21.292    c-0.074-0.384-0.429-0.688-0.828-0.688c-0.408,0-0.767,0.289-0.837,0.688H26.333z"/>
	</g>
</g>
</svg>